<?xml version="1.0" encoding="UTF-8" standalone="no"?>
<!-- Created with Inkscape (http://www.inkscape.org/) -->

<svg
   xmlns:ns1="http://www.iki.fi/pav/software/textext/"
   xmlns:dc="http://purl.org/dc/elements/1.1/"
   xmlns:cc="http://creativecommons.org/ns#"
   xmlns:rdf="http://www.w3.org/1999/02/22-rdf-syntax-ns#"
   xmlns:svg="http://www.w3.org/2000/svg"
   xmlns="http://www.w3.org/2000/svg"
   xmlns:sodipodi="http://sodipodi.sourceforge.net/DTD/sodipodi-0.dtd"
   xmlns:inkscape="http://www.inkscape.org/namespaces/inkscape"
   width="185.88097mm"
   height="107.571mm"
   viewBox="0 0 185.88097 107.571"
   version="1.1"
   id="svg10563"
   inkscape:version="0.92.4 5da689c313, 2019-01-14"
   sodipodi:docname="VAE_1.svg">
  <defs
     id="defs10557">
    <marker
       inkscape:stockid="Arrow2Send"
       orient="auto"
       refY="0"
       refX="0"
       id="Arrow2Send"
       style="overflow:visible"
       inkscape:isstock="true">
      <path
         id="path2059"
         style="fill:#000000;fill-opacity:1;fill-rule:evenodd;stroke:#000000;stroke-width:0.625;stroke-linejoin:round;stroke-opacity:1"
         d="M 8.7185878,4.0337352 -2.2072895,0.01601326 8.7185884,-4.0017078 c -1.7454984,2.3720609 -1.7354408,5.6174519 -6e-7,8.035443 z"
         transform="matrix(-0.3,0,0,-0.3,0.69,0)"
         inkscape:connector-curvature="0" />
    </marker>
  </defs>
  <sodipodi:namedview
     id="base"
     pagecolor="#ffffff"
     bordercolor="#666666"
     borderopacity="1.0"
     inkscape:pageopacity="0.0"
     inkscape:pageshadow="2"
     inkscape:zoom="0.98994949"
     inkscape:cx="358.34941"
     inkscape:cy="191.30973"
     inkscape:document-units="mm"
     inkscape:current-layer="layer1"
     showgrid="false"
     inkscape:window-width="1918"
     inkscape:window-height="1187"
     inkscape:window-x="0"
     inkscape:window-y="0"
     inkscape:window-maximized="0"
     fit-margin-top="0"
     fit-margin-left="0"
     fit-margin-right="0"
     fit-margin-bottom="0" />
  <metadata
     id="metadata10560">
    <rdf:RDF>
      <cc:Work
         rdf:about="">
        <dc:format>image/svg+xml</dc:format>
        <dc:type
           rdf:resource="http://purl.org/dc/dcmitype/StillImage" />
        <dc:title></dc:title>
      </cc:Work>
    </rdf:RDF>
  </metadata>
  <g
     inkscape:label="Layer 1"
     inkscape:groupmode="layer"
     id="layer1"
     transform="translate(-15.036402,-1.4692029)">
    <text
       xml:space="preserve"
       style="font-style:normal;font-variant:normal;font-weight:normal;font-stretch:normal;font-size:9.8777771px;line-height:5.61000013px;font-family:'Adobe Helvetica';-inkscape-font-specification:'Adobe Helvetica';letter-spacing:0px;word-spacing:0px;fill:#000000;fill-opacity:1;stroke:none;stroke-width:0.26458332px;stroke-linecap:butt;stroke-linejoin:miter;stroke-opacity:1"
       x="82.020836"
       y="44.133923"
       id="text1200"><tspan
         sodipodi:role="line"
         id="tspan1198"
         x="82.020836"
         y="49.504829"
         style="font-style:normal;font-variant:normal;font-weight:normal;font-stretch:normal;font-family:'Adobe Helvetica';-inkscape-font-specification:'Adobe Helvetica';stroke-width:0.26458332px" /></text>
    <g
       id="g2414"
       transform="translate(-4.2763124,-62.808339)">
      <rect
         ry="2.5755835"
         y="70.263412"
         x="47.526089"
         height="95.529732"
         width="12.67104"
         id="rect8298"
         style="opacity:1;fill:none;fill-opacity:1;stroke:#000000;stroke-width:0.61433655;stroke-linejoin:round;stroke-miterlimit:4;stroke-dasharray:none;stroke-dashoffset:0;stroke-opacity:1" />
      <g
         transform="translate(2.1166667)"
         id="g11412">
        <g
           id="g11346">
          <circle
             r="3.6945038"
             cy="73.650215"
             cx="37.177372"
             id="circle8280"
             style="opacity:1;fill:#808080;fill-opacity:1;stroke:#000000;stroke-width:0.32572386;stroke-linejoin:round;stroke-miterlimit:4;stroke-dasharray:none;stroke-dashoffset:0;stroke-opacity:1" />
          <text
             id="text8286"
             y="74.909843"
             x="25.163025"
             style="font-style:normal;font-variant:normal;font-weight:normal;font-stretch:normal;font-size:5.69173956px;line-height:3.23257542px;font-family:'Adobe Courier';-inkscape-font-specification:'Adobe Courier';letter-spacing:0px;word-spacing:0px;fill:#000000;fill-opacity:1;stroke:none;stroke-width:0.15245731px;stroke-linecap:butt;stroke-linejoin:miter;stroke-opacity:1"
             xml:space="preserve"><tspan
               style="font-style:italic;font-variant:normal;font-weight:normal;font-stretch:normal;font-family:'Times New Roman';-inkscape-font-specification:'Times New Roman,  Italic';stroke-width:0.15245731px"
               y="74.909843"
               x="25.163025"
               id="tspan8284"
               sodipodi:role="line">X<tspan
   id="tspan8282"
   style="font-size:3.69963074px;baseline-shift:sub;stroke-width:0.15245731px">11</tspan></tspan></text>
          <circle
             style="opacity:1;fill:#808080;fill-opacity:1;stroke:#000000;stroke-width:0.32572386;stroke-linejoin:round;stroke-miterlimit:4;stroke-dasharray:none;stroke-dashoffset:0;stroke-opacity:1"
             id="circle11293"
             cx="37.177372"
             cy="83.704391"
             r="3.6945038" />
          <text
             xml:space="preserve"
             style="font-style:normal;font-variant:normal;font-weight:normal;font-stretch:normal;font-size:5.69173956px;line-height:3.23257542px;font-family:'Adobe Courier';-inkscape-font-specification:'Adobe Courier';letter-spacing:0px;word-spacing:0px;fill:#000000;fill-opacity:1;stroke:none;stroke-width:0.15245731px;stroke-linecap:butt;stroke-linejoin:miter;stroke-opacity:1"
             x="25.163025"
             y="84.964012"
             id="text11299"><tspan
               sodipodi:role="line"
               id="tspan11297"
               x="25.163025"
               y="84.964012"
               style="font-style:italic;font-variant:normal;font-weight:normal;font-stretch:normal;font-family:'Times New Roman';-inkscape-font-specification:'Times New Roman,  Italic';stroke-width:0.15245731px">X<tspan
   style="font-size:3.69963074px;baseline-shift:sub;stroke-width:0.15245731px"
   id="tspan11295">12</tspan></tspan></text>
          <circle
             r="3.6945038"
             cy="112.27941"
             cx="37.177372"
             id="circle11303"
             style="opacity:1;fill:#808080;fill-opacity:1;stroke:#000000;stroke-width:0.32572386;stroke-linejoin:round;stroke-miterlimit:4;stroke-dasharray:none;stroke-dashoffset:0;stroke-opacity:1" />
          <text
             id="text11309"
             y="113.53903"
             x="25.163025"
             style="font-style:normal;font-variant:normal;font-weight:normal;font-stretch:normal;font-size:5.69173956px;line-height:3.23257542px;font-family:'Adobe Courier';-inkscape-font-specification:'Adobe Courier';letter-spacing:0px;word-spacing:0px;fill:#000000;fill-opacity:1;stroke:none;stroke-width:0.15245731px;stroke-linecap:butt;stroke-linejoin:miter;stroke-opacity:1"
             xml:space="preserve"><tspan
               style="font-style:italic;font-variant:normal;font-weight:normal;font-stretch:normal;font-family:'Times New Roman';-inkscape-font-specification:'Times New Roman,  Italic';stroke-width:0.15245731px"
               y="113.53903"
               x="25.163025"
               id="tspan11307"
               sodipodi:role="line">X<tspan
   id="tspan11305"
   style="font-size:3.69963074px;baseline-shift:sub;stroke-width:0.15245731px">1d</tspan></tspan></text>
          <circle
             r="0.97937143"
             cy="93.342781"
             cx="37.177372"
             id="circle11325"
             style="opacity:1;fill:#808080;fill-opacity:1;stroke:#000000;stroke-width:0.08634573;stroke-linejoin:round;stroke-miterlimit:4;stroke-dasharray:none;stroke-dashoffset:0;stroke-opacity:1" />
          <circle
             style="opacity:1;fill:#808080;fill-opacity:1;stroke:#000000;stroke-width:0.08634573;stroke-linejoin:round;stroke-miterlimit:4;stroke-dasharray:none;stroke-dashoffset:0;stroke-opacity:1"
             id="circle11327"
             cx="37.177372"
             cy="97.046951"
             r="0.97937143" />
          <circle
             r="0.97937143"
             cy="101.28027"
             cx="37.177372"
             id="circle11329"
             style="opacity:1;fill:#808080;fill-opacity:1;stroke:#000000;stroke-width:0.08634573;stroke-linejoin:round;stroke-miterlimit:4;stroke-dasharray:none;stroke-dashoffset:0;stroke-opacity:1" />
        </g>
        <g
           id="g11378"
           transform="translate(0,49.212525)">
          <circle
             style="opacity:1;fill:#808080;fill-opacity:1;stroke:#000000;stroke-width:0.32572386;stroke-linejoin:round;stroke-miterlimit:4;stroke-dasharray:none;stroke-dashoffset:0;stroke-opacity:1"
             id="circle11348"
             cx="37.177372"
             cy="73.650215"
             r="3.6945038" />
          <text
             xml:space="preserve"
             style="font-style:normal;font-variant:normal;font-weight:normal;font-stretch:normal;font-size:5.69173956px;line-height:3.23257542px;font-family:'Adobe Courier';-inkscape-font-specification:'Adobe Courier';letter-spacing:0px;word-spacing:0px;fill:#000000;fill-opacity:1;stroke:none;stroke-width:0.15245731px;stroke-linecap:butt;stroke-linejoin:miter;stroke-opacity:1"
             x="25.163025"
             y="74.909843"
             id="text11354"><tspan
               sodipodi:role="line"
               id="tspan11352"
               x="25.163025"
               y="74.909843"
               style="font-style:italic;font-variant:normal;font-weight:normal;font-stretch:normal;font-family:'Times New Roman';-inkscape-font-specification:'Times New Roman,  Italic';stroke-width:0.15245731px">X<tspan
   style="font-size:3.69963074px;baseline-shift:sub;stroke-width:0.15245731px"
   id="tspan11350">21</tspan></tspan></text>
          <circle
             r="3.6945038"
             cy="83.704391"
             cx="37.177372"
             id="circle11356"
             style="opacity:1;fill:#808080;fill-opacity:1;stroke:#000000;stroke-width:0.32572386;stroke-linejoin:round;stroke-miterlimit:4;stroke-dasharray:none;stroke-dashoffset:0;stroke-opacity:1" />
          <text
             id="text11362"
             y="84.964012"
             x="25.163025"
             style="font-style:normal;font-variant:normal;font-weight:normal;font-stretch:normal;font-size:5.69173956px;line-height:3.23257542px;font-family:'Adobe Courier';-inkscape-font-specification:'Adobe Courier';letter-spacing:0px;word-spacing:0px;fill:#000000;fill-opacity:1;stroke:none;stroke-width:0.15245731px;stroke-linecap:butt;stroke-linejoin:miter;stroke-opacity:1"
             xml:space="preserve"><tspan
               style="font-style:italic;font-variant:normal;font-weight:normal;font-stretch:normal;font-family:'Times New Roman';-inkscape-font-specification:'Times New Roman,  Italic';stroke-width:0.15245731px"
               y="84.964012"
               x="25.163025"
               id="tspan11360"
               sodipodi:role="line">X<tspan
   id="tspan11358"
   style="font-size:3.69963074px;baseline-shift:sub;stroke-width:0.15245731px">22</tspan></tspan></text>
          <circle
             style="opacity:1;fill:#808080;fill-opacity:1;stroke:#000000;stroke-width:0.32572386;stroke-linejoin:round;stroke-miterlimit:4;stroke-dasharray:none;stroke-dashoffset:0;stroke-opacity:1"
             id="circle11364"
             cx="37.177372"
             cy="112.27941"
             r="3.6945038" />
          <text
             xml:space="preserve"
             style="font-style:normal;font-variant:normal;font-weight:normal;font-stretch:normal;font-size:5.69173956px;line-height:3.23257542px;font-family:'Adobe Courier';-inkscape-font-specification:'Adobe Courier';letter-spacing:0px;word-spacing:0px;fill:#000000;fill-opacity:1;stroke:none;stroke-width:0.15245731px;stroke-linecap:butt;stroke-linejoin:miter;stroke-opacity:1"
             x="25.163025"
             y="113.53903"
             id="text11370"><tspan
               sodipodi:role="line"
               id="tspan11368"
               x="25.163025"
               y="113.53903"
               style="font-style:italic;font-variant:normal;font-weight:normal;font-stretch:normal;font-family:'Times New Roman';-inkscape-font-specification:'Times New Roman,  Italic';stroke-width:0.15245731px">X<tspan
   style="font-size:3.69963074px;baseline-shift:sub;stroke-width:0.15245731px"
   id="tspan11366">2d</tspan></tspan></text>
          <circle
             style="opacity:1;fill:#808080;fill-opacity:1;stroke:#000000;stroke-width:0.08634573;stroke-linejoin:round;stroke-miterlimit:4;stroke-dasharray:none;stroke-dashoffset:0;stroke-opacity:1"
             id="circle11372"
             cx="37.177372"
             cy="93.342781"
             r="0.97937143" />
          <circle
             r="0.97937143"
             cy="97.046951"
             cx="37.177372"
             id="circle11374"
             style="opacity:1;fill:#808080;fill-opacity:1;stroke:#000000;stroke-width:0.08634573;stroke-linejoin:round;stroke-miterlimit:4;stroke-dasharray:none;stroke-dashoffset:0;stroke-opacity:1" />
          <circle
             style="opacity:1;fill:#808080;fill-opacity:1;stroke:#000000;stroke-width:0.08634573;stroke-linejoin:round;stroke-miterlimit:4;stroke-dasharray:none;stroke-dashoffset:0;stroke-opacity:1"
             id="circle11376"
             cx="37.177372"
             cy="101.28027"
             r="0.97937143" />
        </g>
      </g>
      <rect
         style="opacity:1;fill:none;fill-opacity:1;stroke:#000000;stroke-width:0.61433655;stroke-linejoin:round;stroke-miterlimit:4;stroke-dasharray:none;stroke-dashoffset:0;stroke-opacity:1"
         id="rect11646"
         width="11.915092"
         height="57.921112"
         x="83.96299"
         y="91.619064"
         ry="2.5755835" />
      <g
         transform="translate(-15.950593,-3.1750001)"
         id="g11654">
        <rect
           style="opacity:1;fill:#e6e6e6;fill-opacity:1;stroke:#000000;stroke-width:0.61433655;stroke-linejoin:round;stroke-miterlimit:4;stroke-dasharray:none;stroke-dashoffset:0;stroke-opacity:1"
           id="rect11648"
           width="11.9151"
           height="24.848196"
           x="121.38263"
           y="124.69198"
           ry="2.5755835" />
        <rect
           ry="2.5755835"
           y="98.256279"
           x="121.38263"
           height="24.848196"
           width="11.9151"
           id="rect11650"
           style="opacity:1;fill:#e6e6e6;fill-opacity:1;stroke:#000000;stroke-width:0.61433655;stroke-linejoin:round;stroke-miterlimit:4;stroke-dasharray:none;stroke-dashoffset:0;stroke-opacity:1" />
      </g>
      <rect
         ry="2.5755835"
         y="108.06102"
         x="126.82549"
         height="24.848196"
         width="11.915101"
         id="rect11650-3"
         style="opacity:1;fill:#e6e6e6;fill-opacity:1;stroke:#000000;stroke-width:0.61433661;stroke-linejoin:round;stroke-miterlimit:4;stroke-dasharray:none;stroke-dashoffset:0;stroke-opacity:1" />
      <path
         inkscape:connector-curvature="0"
         id="path11673"
         d="M 60.197129,70.263411 83.962988,91.619064"
         style="fill:none;fill-rule:evenodd;stroke:#000000;stroke-width:0.565;stroke-linecap:butt;stroke-linejoin:miter;stroke-miterlimit:4;stroke-dasharray:2.26, 0.565;stroke-dashoffset:0;stroke-opacity:1" />
      <path
         sodipodi:nodetypes="cc"
         style="fill:none;fill-rule:evenodd;stroke:#000000;stroke-width:0.565;stroke-linecap:butt;stroke-linejoin:miter;stroke-miterlimit:4;stroke-dasharray:2.26, 0.565;stroke-dashoffset:0;stroke-opacity:1"
         d="M 60.197128,165.79315 83.96299,149.54018"
         id="path11677"
         inkscape:connector-curvature="0" />
      <path
         inkscape:connector-curvature="0"
         id="path11679"
         d="m 95.878082,149.54018 9.553958,-3.175"
         style="fill:none;fill-rule:evenodd;stroke:#000000;stroke-width:0.565;stroke-linecap:butt;stroke-linejoin:miter;stroke-miterlimit:4;stroke-dasharray:2.26, 0.565;stroke-dashoffset:0;stroke-opacity:1"
         sodipodi:nodetypes="cc" />
      <path
         sodipodi:nodetypes="cc"
         style="fill:none;fill-rule:evenodd;stroke:#000000;stroke-width:0.565;stroke-linecap:butt;stroke-linejoin:miter;stroke-miterlimit:4;stroke-dasharray:2.26, 0.565;stroke-dashoffset:0;stroke-opacity:1"
         d="m 95.878082,149.54018 9.553958,-28.0232"
         id="path11681"
         inkscape:connector-curvature="0" />
      <path
         sodipodi:nodetypes="cc"
         style="fill:none;fill-rule:evenodd;stroke:#000000;stroke-width:0.565;stroke-linecap:butt;stroke-linejoin:miter;stroke-miterlimit:4;stroke-dasharray:2.26, 0.565;stroke-dashoffset:0;stroke-opacity:1"
         d="m 95.878082,91.619064 9.553958,3.175"
         id="path11683"
         inkscape:connector-curvature="0" />
      <path
         inkscape:connector-curvature="0"
         id="path11685"
         d="m 95.878082,91.619064 9.553958,28.023196"
         style="fill:none;fill-rule:evenodd;stroke:#000000;stroke-width:0.565;stroke-linecap:butt;stroke-linejoin:miter;stroke-miterlimit:4;stroke-dasharray:2.26, 0.565;stroke-dashoffset:0;stroke-opacity:1"
         sodipodi:nodetypes="cc" />
      <rect
         style="opacity:1;fill:none;fill-opacity:1;stroke:#000000;stroke-width:0.61433655;stroke-linejoin:round;stroke-miterlimit:4;stroke-dasharray:none;stroke-dashoffset:0;stroke-opacity:1"
         id="rect11689"
         width="12.67104"
         height="95.529732"
         x="165.9081"
         y="70.263412"
         ry="2.5755835" />
      <circle
         style="opacity:1;fill:#808080;fill-opacity:1;stroke:#000000;stroke-width:0.32572386;stroke-linejoin:round;stroke-miterlimit:4;stroke-dasharray:none;stroke-dashoffset:0;stroke-opacity:1"
         id="circle11691"
         cx="185.72198"
         cy="73.650215"
         r="3.6945038" />
      <text
         xml:space="preserve"
         style="font-style:normal;font-variant:normal;font-weight:normal;font-stretch:normal;font-size:5.69173956px;line-height:3.23257542px;font-family:'Adobe Courier';-inkscape-font-specification:'Adobe Courier';letter-spacing:0px;word-spacing:0px;fill:#000000;fill-opacity:1;stroke:none;stroke-width:0.15245731px;stroke-linecap:butt;stroke-linejoin:miter;stroke-opacity:1"
         x="190.64073"
         y="74.909843"
         id="text11697"><tspan
           sodipodi:role="line"
           id="tspan11695"
           x="190.64073"
           y="74.909843"
           style="font-style:italic;font-variant:normal;font-weight:normal;font-stretch:normal;font-family:'Times New Roman';-inkscape-font-specification:'Times New Roman,  Italic';stroke-width:0.15245731px">X<tspan
   style="font-size:3.69963074px;baseline-shift:sub;stroke-width:0.15245731px"
   id="tspan11693">11</tspan></tspan></text>
      <circle
         r="3.6945038"
         cy="83.704391"
         cx="185.72198"
         id="circle11699"
         style="opacity:1;fill:#808080;fill-opacity:1;stroke:#000000;stroke-width:0.32572386;stroke-linejoin:round;stroke-miterlimit:4;stroke-dasharray:none;stroke-dashoffset:0;stroke-opacity:1" />
      <text
         id="text11705"
         y="84.964012"
         x="190.64073"
         style="font-style:normal;font-variant:normal;font-weight:normal;font-stretch:normal;font-size:5.69173956px;line-height:3.23257542px;font-family:'Adobe Courier';-inkscape-font-specification:'Adobe Courier';letter-spacing:0px;word-spacing:0px;fill:#000000;fill-opacity:1;stroke:none;stroke-width:0.15245731px;stroke-linecap:butt;stroke-linejoin:miter;stroke-opacity:1"
         xml:space="preserve"><tspan
           style="font-style:italic;font-variant:normal;font-weight:normal;font-stretch:normal;font-family:'Times New Roman';-inkscape-font-specification:'Times New Roman,  Italic';stroke-width:0.15245731px"
           y="84.964012"
           x="190.64073"
           id="tspan11703"
           sodipodi:role="line">X<tspan
   id="tspan11701"
   style="font-size:3.69963074px;baseline-shift:sub;stroke-width:0.15245731px">12</tspan></tspan></text>
      <circle
         style="opacity:1;fill:#808080;fill-opacity:1;stroke:#000000;stroke-width:0.32572386;stroke-linejoin:round;stroke-miterlimit:4;stroke-dasharray:none;stroke-dashoffset:0;stroke-opacity:1"
         id="circle11707"
         cx="185.72198"
         cy="112.27941"
         r="3.6945038" />
      <text
         xml:space="preserve"
         style="font-style:normal;font-variant:normal;font-weight:normal;font-stretch:normal;font-size:5.69173956px;line-height:3.23257542px;font-family:'Adobe Courier';-inkscape-font-specification:'Adobe Courier';letter-spacing:0px;word-spacing:0px;fill:#000000;fill-opacity:1;stroke:none;stroke-width:0.15245731px;stroke-linecap:butt;stroke-linejoin:miter;stroke-opacity:1"
         x="190.64073"
         y="113.53903"
         id="text11713"><tspan
           sodipodi:role="line"
           id="tspan11711"
           x="190.64073"
           y="113.53903"
           style="font-style:italic;font-variant:normal;font-weight:normal;font-stretch:normal;font-family:'Times New Roman';-inkscape-font-specification:'Times New Roman,  Italic';stroke-width:0.15245731px">X<tspan
   style="font-size:3.69963074px;baseline-shift:sub;stroke-width:0.15245731px"
   id="tspan11709">1d</tspan></tspan></text>
      <circle
         style="opacity:1;fill:#808080;fill-opacity:1;stroke:#000000;stroke-width:0.08634573;stroke-linejoin:round;stroke-miterlimit:4;stroke-dasharray:none;stroke-dashoffset:0;stroke-opacity:1"
         id="circle11715"
         cx="185.72198"
         cy="93.342781"
         r="0.97937143" />
      <circle
         r="0.97937143"
         cy="97.046951"
         cx="185.72198"
         id="circle11717"
         style="opacity:1;fill:#808080;fill-opacity:1;stroke:#000000;stroke-width:0.08634573;stroke-linejoin:round;stroke-miterlimit:4;stroke-dasharray:none;stroke-dashoffset:0;stroke-opacity:1" />
      <circle
         style="opacity:1;fill:#808080;fill-opacity:1;stroke:#000000;stroke-width:0.08634573;stroke-linejoin:round;stroke-miterlimit:4;stroke-dasharray:none;stroke-dashoffset:0;stroke-opacity:1"
         id="circle11719"
         cx="185.72198"
         cy="101.28027"
         r="0.97937143" />
      <circle
         r="3.6945038"
         cy="122.86274"
         cx="185.72198"
         id="circle11723"
         style="opacity:1;fill:#808080;fill-opacity:1;stroke:#000000;stroke-width:0.32572386;stroke-linejoin:round;stroke-miterlimit:4;stroke-dasharray:none;stroke-dashoffset:0;stroke-opacity:1" />
      <text
         id="text11729"
         y="124.12237"
         x="190.64073"
         style="font-style:normal;font-variant:normal;font-weight:normal;font-stretch:normal;font-size:5.69173956px;line-height:3.23257542px;font-family:'Adobe Courier';-inkscape-font-specification:'Adobe Courier';letter-spacing:0px;word-spacing:0px;fill:#000000;fill-opacity:1;stroke:none;stroke-width:0.15245731px;stroke-linecap:butt;stroke-linejoin:miter;stroke-opacity:1"
         xml:space="preserve"><tspan
           style="font-style:italic;font-variant:normal;font-weight:normal;font-stretch:normal;font-family:'Times New Roman';-inkscape-font-specification:'Times New Roman,  Italic';stroke-width:0.15245731px"
           y="124.12237"
           x="190.64073"
           id="tspan11727"
           sodipodi:role="line">X<tspan
   id="tspan11725"
   style="font-size:3.69963074px;baseline-shift:sub;stroke-width:0.15245731px">21</tspan></tspan></text>
      <circle
         style="opacity:1;fill:#808080;fill-opacity:1;stroke:#000000;stroke-width:0.32572386;stroke-linejoin:round;stroke-miterlimit:4;stroke-dasharray:none;stroke-dashoffset:0;stroke-opacity:1"
         id="circle11731"
         cx="185.72198"
         cy="132.91692"
         r="3.6945038" />
      <text
         xml:space="preserve"
         style="font-style:normal;font-variant:normal;font-weight:normal;font-stretch:normal;font-size:5.69173956px;line-height:3.23257542px;font-family:'Adobe Courier';-inkscape-font-specification:'Adobe Courier';letter-spacing:0px;word-spacing:0px;fill:#000000;fill-opacity:1;stroke:none;stroke-width:0.15245731px;stroke-linecap:butt;stroke-linejoin:miter;stroke-opacity:1"
         x="190.64073"
         y="134.17654"
         id="text11737"><tspan
           sodipodi:role="line"
           id="tspan11735"
           x="190.64073"
           y="134.17654"
           style="font-style:italic;font-variant:normal;font-weight:normal;font-stretch:normal;font-family:'Times New Roman';-inkscape-font-specification:'Times New Roman,  Italic';stroke-width:0.15245731px">X<tspan
   style="font-size:3.69963074px;baseline-shift:sub;stroke-width:0.15245731px"
   id="tspan11733">22</tspan></tspan></text>
      <circle
         r="3.6945038"
         cy="161.49194"
         cx="185.72198"
         id="circle11739"
         style="opacity:1;fill:#808080;fill-opacity:1;stroke:#000000;stroke-width:0.32572386;stroke-linejoin:round;stroke-miterlimit:4;stroke-dasharray:none;stroke-dashoffset:0;stroke-opacity:1" />
      <text
         id="text11745"
         y="162.75156"
         x="190.64073"
         style="font-style:normal;font-variant:normal;font-weight:normal;font-stretch:normal;font-size:5.69173956px;line-height:3.23257542px;font-family:'Adobe Courier';-inkscape-font-specification:'Adobe Courier';letter-spacing:0px;word-spacing:0px;fill:#000000;fill-opacity:1;stroke:none;stroke-width:0.15245731px;stroke-linecap:butt;stroke-linejoin:miter;stroke-opacity:1"
         xml:space="preserve"><tspan
           style="font-style:italic;font-variant:normal;font-weight:normal;font-stretch:normal;font-family:'Times New Roman';-inkscape-font-specification:'Times New Roman,  Italic';stroke-width:0.15245731px"
           y="162.75156"
           x="190.64073"
           id="tspan11743"
           sodipodi:role="line">X<tspan
   id="tspan11741"
   style="font-size:3.69963074px;baseline-shift:sub;stroke-width:0.15245731px">2d</tspan></tspan></text>
      <circle
         r="0.97937143"
         cy="142.55531"
         cx="185.72198"
         id="circle11747"
         style="opacity:1;fill:#808080;fill-opacity:1;stroke:#000000;stroke-width:0.08634573;stroke-linejoin:round;stroke-miterlimit:4;stroke-dasharray:none;stroke-dashoffset:0;stroke-opacity:1" />
      <circle
         style="opacity:1;fill:#808080;fill-opacity:1;stroke:#000000;stroke-width:0.08634573;stroke-linejoin:round;stroke-miterlimit:4;stroke-dasharray:none;stroke-dashoffset:0;stroke-opacity:1"
         id="circle11749"
         cx="185.72198"
         cy="146.25948"
         r="0.97937143" />
      <circle
         r="0.97937143"
         cy="150.4928"
         cx="185.72198"
         id="circle11751"
         style="opacity:1;fill:#808080;fill-opacity:1;stroke:#000000;stroke-width:0.08634573;stroke-linejoin:round;stroke-miterlimit:4;stroke-dasharray:none;stroke-dashoffset:0;stroke-opacity:1" />
      <path
         sodipodi:nodetypes="cc"
         style="fill:none;fill-rule:evenodd;stroke:#000000;stroke-width:0.565;stroke-linecap:butt;stroke-linejoin:miter;stroke-miterlimit:4;stroke-dasharray:2.26, 0.565;stroke-dashoffset:0;stroke-opacity:1"
         d="M 165.9081,70.263412 138.7406,108.06102"
         id="path11819"
         inkscape:connector-curvature="0" />
      <path
         inkscape:connector-curvature="0"
         id="path11821"
         d="M 165.9081,165.79315 138.7406,132.90921"
         style="fill:none;fill-rule:evenodd;stroke:#000000;stroke-width:0.565;stroke-linecap:butt;stroke-linejoin:miter;stroke-miterlimit:4;stroke-dasharray:2.26, 0.565;stroke-dashoffset:0;stroke-opacity:1"
         sodipodi:nodetypes="cc" />
      <g
         transform="matrix(0.51300716,0,0,0.51300716,114.98493,-4.819903)"
         ns1:version="0.11.0"
         ns1:texconverter="pdflatex"
         ns1:pdfconverter="pdf2svg"
         ns1:text="$\\tilde{X}$\n"
         ns1:preamble="default_packages.tex"
         ns1:scale="1.0"
         ns1:alignment="middle center"
         inkscapeversion="0.92.4"
         ns1:jacobian_sqrt="0.352778"
         id="g1148">
        <g
           transform="matrix(1.8650333,0,0,1.8650333,-135.72637,-89.119166)"
           id="surface1">
          <g
             style="fill:#000000;fill-opacity:1"
             id="g1141">
            <path
               inkscape:connector-curvature="0"
               style="stroke:none;stroke-width:0"
               d="M 4.140625,-6.515625 3.984375,-6.65625 c 0,0 -0.375,0.46875 -0.8125,0.46875 -0.234375,0 -0.484375,-0.140625 -0.65625,-0.25 C 2.25,-6.59375 2.078125,-6.65625 1.90625,-6.65625 c -0.375,0 -0.578125,0.21875 -1.078125,0.78125 l 0.15625,0.140625 c 0,0 0.375,-0.46875 0.8125,-0.46875 0.234375,0 0.484375,0.140625 0.65625,0.234375 0.265625,0.171875 0.453125,0.234375 0.625,0.234375 0.375,0 0.5625,-0.21875 1.0625,-0.78125 z m 0,0"
               transform="translate(151.57,132.247)"
               id="path1139" />
          </g>
          <g
             style="fill:#000000;fill-opacity:1"
             id="g1145" />
        </g>
        <g
           id="g1164"
           transform="matrix(1.8650333,0,0,1.8650333,-135.72637,-69.520666)">
          <g
             id="g1160"
             style="fill:#000000;fill-opacity:1">
            <path
               id="path1158"
               transform="translate(151.57,132.247)"
               d="M 4.140625,-6.515625 3.984375,-6.65625 c 0,0 -0.375,0.46875 -0.8125,0.46875 -0.234375,0 -0.484375,-0.140625 -0.65625,-0.25 C 2.25,-6.59375 2.078125,-6.65625 1.90625,-6.65625 c -0.375,0 -0.578125,0.21875 -1.078125,0.78125 l 0.15625,0.140625 c 0,0 0.375,-0.46875 0.8125,-0.46875 0.234375,0 0.484375,0.140625 0.65625,0.234375 0.265625,0.171875 0.453125,0.234375 0.625,0.234375 0.375,0 0.5625,-0.21875 1.0625,-0.78125 z m 0,0"
               style="stroke:none;stroke-width:0"
               inkscape:connector-curvature="0" />
          </g>
          <g
             id="g1162"
             style="fill:#000000;fill-opacity:1" />
        </g>
        <g
           transform="matrix(1.8650333,0,0,1.8650333,-135.72637,-13.819666)"
           id="g1172">
          <g
             style="fill:#000000;fill-opacity:1"
             id="g1168">
            <path
               inkscape:connector-curvature="0"
               style="stroke:none;stroke-width:0"
               d="M 4.140625,-6.515625 3.984375,-6.65625 c 0,0 -0.375,0.46875 -0.8125,0.46875 -0.234375,0 -0.484375,-0.140625 -0.65625,-0.25 C 2.25,-6.59375 2.078125,-6.65625 1.90625,-6.65625 c -0.375,0 -0.578125,0.21875 -1.078125,0.78125 l 0.15625,0.140625 c 0,0 0.375,-0.46875 0.8125,-0.46875 0.234375,0 0.484375,0.140625 0.65625,0.234375 0.265625,0.171875 0.453125,0.234375 0.625,0.234375 0.375,0 0.5625,-0.21875 1.0625,-0.78125 z m 0,0"
               transform="translate(151.57,132.247)"
               id="path1166" />
          </g>
          <g
             style="fill:#000000;fill-opacity:1"
             id="g1170" />
        </g>
        <g
           id="g1180"
           transform="matrix(1.8650333,0,0,1.8650333,-135.72637,7.1787182)">
          <g
             id="g1176"
             style="fill:#000000;fill-opacity:1">
            <path
               id="path1174"
               transform="translate(151.57,132.247)"
               d="M 4.140625,-6.515625 3.984375,-6.65625 c 0,0 -0.375,0.46875 -0.8125,0.46875 -0.234375,0 -0.484375,-0.140625 -0.65625,-0.25 C 2.25,-6.59375 2.078125,-6.65625 1.90625,-6.65625 c -0.375,0 -0.578125,0.21875 -1.078125,0.78125 l 0.15625,0.140625 c 0,0 0.375,-0.46875 0.8125,-0.46875 0.234375,0 0.484375,0.140625 0.65625,0.234375 0.265625,0.171875 0.453125,0.234375 0.625,0.234375 0.375,0 0.5625,-0.21875 1.0625,-0.78125 z m 0,0"
               style="stroke:none;stroke-width:0"
               inkscape:connector-curvature="0" />
          </g>
          <g
             id="g1178"
             style="fill:#000000;fill-opacity:1" />
        </g>
        <g
           transform="matrix(1.8650333,0,0,1.8650333,-135.72637,26.519335)"
           id="g1188">
          <g
             style="fill:#000000;fill-opacity:1"
             id="g1184">
            <path
               inkscape:connector-curvature="0"
               style="stroke:none;stroke-width:0"
               d="M 4.140625,-6.515625 3.984375,-6.65625 c 0,0 -0.375,0.46875 -0.8125,0.46875 -0.234375,0 -0.484375,-0.140625 -0.65625,-0.25 C 2.25,-6.59375 2.078125,-6.65625 1.90625,-6.65625 c -0.375,0 -0.578125,0.21875 -1.078125,0.78125 l 0.15625,0.140625 c 0,0 0.375,-0.46875 0.8125,-0.46875 0.234375,0 0.484375,0.140625 0.65625,0.234375 0.265625,0.171875 0.453125,0.234375 0.625,0.234375 0.375,0 0.5625,-0.21875 1.0625,-0.78125 z m 0,0"
               transform="translate(151.57,132.247)"
               id="path1182" />
          </g>
          <g
             style="fill:#000000;fill-opacity:1"
             id="g1186" />
        </g>
        <g
           id="g1196"
           transform="matrix(1.8650333,0,0,1.8650333,-135.72637,82.699223)">
          <g
             id="g1192"
             style="fill:#000000;fill-opacity:1">
            <path
               id="path1190"
               transform="translate(151.57,132.247)"
               d="M 4.140625,-6.515625 3.984375,-6.65625 c 0,0 -0.375,0.46875 -0.8125,0.46875 -0.234375,0 -0.484375,-0.140625 -0.65625,-0.25 C 2.25,-6.59375 2.078125,-6.65625 1.90625,-6.65625 c -0.375,0 -0.578125,0.21875 -1.078125,0.78125 l 0.15625,0.140625 c 0,0 0.375,-0.46875 0.8125,-0.46875 0.234375,0 0.484375,0.140625 0.65625,0.234375 0.265625,0.171875 0.453125,0.234375 0.625,0.234375 0.375,0 0.5625,-0.21875 1.0625,-0.78125 z m 0,0"
               style="stroke:none;stroke-width:0"
               inkscape:connector-curvature="0" />
          </g>
          <g
             id="g1194"
             style="fill:#000000;fill-opacity:1" />
        </g>
      </g>
      <text
         transform="rotate(-90)"
         id="text1204"
         y="73.23703"
         x="-141.29807"
         style="font-style:normal;font-variant:normal;font-weight:normal;font-stretch:normal;font-size:5.99846935px;line-height:3.40678px;font-family:sans-serif;-inkscape-font-specification:sans-serif;letter-spacing:0px;word-spacing:0px;fill:#000000;fill-opacity:1;stroke:none;stroke-width:0.16067329px;stroke-linecap:butt;stroke-linejoin:miter;stroke-opacity:1"
         xml:space="preserve"><tspan
           style="stroke-width:0.16067329px"
           y="73.23703"
           x="-141.29807"
           id="tspan1202"
           sodipodi:role="line">inference net</tspan></text>
      <text
         transform="rotate(-90)"
         xml:space="preserve"
         style="font-style:normal;font-variant:normal;font-weight:normal;font-stretch:normal;font-size:5.99846935px;line-height:3.40678px;font-family:sans-serif;-inkscape-font-specification:sans-serif;letter-spacing:0px;word-spacing:0px;fill:#000000;fill-opacity:1;stroke:none;stroke-width:0.16067329px;stroke-linecap:butt;stroke-linejoin:miter;stroke-opacity:1"
         x="-142.19164"
         y="158.1134"
         id="text1208"><tspan
           sodipodi:role="line"
           id="tspan1206"
           x="-142.19164"
           y="158.1134"
           style="stroke-width:0.16067329px">generative net</tspan></text>
      <g
         transform="matrix(0.92835346,0,0,0.92835346,-31.026692,-15.665615)"
         ns1:version="0.11.0"
         ns1:texconverter="pdflatex"
         ns1:pdfconverter="pdf2svg"
         ns1:text="$\\mu_z$\n\n"
         ns1:preamble="default_packages.tex"
         ns1:scale="3.3369115988"
         ns1:alignment="middle center"
         inkscapeversion="0.92.4"
         ns1:jacobian_sqrt="1.177189"
         id="g1738">
        <g
           id="g1736">
          <g
             style="fill:#000000;fill-opacity:1"
             id="g1730">
            <path
               inkscape:connector-curvature="0"
               style="stroke:none;stroke-width:0"
               d="m 2.296875,-3.5 c 0.0625,-0.203125 0.15625,-0.59375 0.15625,-0.640625 0,-0.171875 -0.125,-0.265625 -0.296875,-0.265625 -0.015625,0 -0.296875,0.015625 -0.390625,0.359375 l -1.4375,5.765625 c -0.03125,0.125 -0.03125,0.140625 -0.03125,0.171875 0,0.140625 0.109375,0.265625 0.28125,0.265625 0.203125,0 0.328125,-0.1875 0.34375,-0.21875 C 0.96875,1.859375 1.09375,1.328125 1.46875,-0.203125 1.796875,0.0625 2.25,0.109375 2.4375,0.109375 c 0.703125,0 1.09375,-0.453125 1.328125,-0.734375 0.09375,0.453125 0.46875,0.734375 0.90625,0.734375 0.34375,0 0.578125,-0.234375 0.734375,-0.546875 0.171875,-0.359375 0.296875,-0.96875 0.296875,-0.984375 0,-0.109375 -0.09375,-0.109375 -0.125,-0.109375 -0.09375,0 -0.109375,0.046875 -0.140625,0.1875 -0.15625,0.640625 -0.34375,1.234375 -0.75,1.234375 -0.265625,0 -0.296875,-0.265625 -0.296875,-0.453125 0,-0.21875 0.109375,-0.6875 0.1875,-1.046875 L 4.859375,-2.6875 C 4.890625,-2.828125 5,-3.203125 5.03125,-3.359375 5.078125,-3.59375 5.1875,-3.96875 5.1875,-4.03125 c 0,-0.171875 -0.140625,-0.265625 -0.296875,-0.265625 -0.046875,0 -0.3125,0.015625 -0.390625,0.34375 l -0.46875,1.875 c -0.109375,0.5 -0.21875,0.90625 -0.25,1.015625 -0.015625,0.046875 -0.484375,0.953125 -1.296875,0.953125 -0.5,0 -0.734375,-0.328125 -0.734375,-0.875 0,-0.28125 0.0625,-0.5625 0.140625,-0.84375 z m 0,0"
               transform="translate(148.712,134.765)"
               id="path1728" />
          </g>
          <g
             style="fill:#000000;fill-opacity:1"
             id="g1734">
            <path
               inkscape:connector-curvature="0"
               style="stroke:none;stroke-width:0"
               d="m 1.171875,-0.609375 c 0.1875,-0.1875 0.3125,-0.3125 0.890625,-0.796875 0.15625,-0.109375 0.671875,-0.53125 0.875,-0.71875 0.421875,-0.421875 0.6875,-0.78125 0.6875,-0.859375 0,-0.09375 -0.078125,-0.09375 -0.109375,-0.09375 -0.0625,0 -0.09375,0.015625 -0.125,0.078125 -0.21875,0.3125 -0.359375,0.421875 -0.53125,0.421875 -0.078125,0 -0.1875,0 -0.390625,-0.203125 -0.234375,-0.25 -0.390625,-0.296875 -0.546875,-0.296875 -0.5625,0 -0.9375,0.609375 -0.9375,0.8125 0,0.078125 0.0625,0.09375 0.109375,0.09375 0.09375,0 0.109375,-0.015625 0.125,-0.09375 0.109375,-0.25 0.5,-0.265625 0.609375,-0.265625 0.171875,0 0.34375,0.046875 0.4375,0.0625 0.390625,0.078125 0.4375,0.078125 0.609375,0.078125 -0.171875,0.203125 -0.296875,0.328125 -0.96875,0.84375 -0.546875,0.4375 -0.734375,0.609375 -0.859375,0.75 -0.421875,0.40625 -0.625,0.71875 -0.625,0.78125 0,0.078125 0.09375,0.078125 0.125,0.078125 0.0625,0 0.078125,0 0.109375,-0.0625 0.1875,-0.265625 0.40625,-0.421875 0.640625,-0.421875 0.09375,0 0.1875,0 0.375,0.171875 0.21875,0.21875 0.359375,0.3125 0.59375,0.3125 C 3,0.0625 3.46875,-0.78125 3.46875,-1.015625 3.46875,-1.09375 3.390625,-1.09375 3.359375,-1.09375 3.265625,-1.09375 3.25,-1.0625 3.21875,-0.984375 3.09375,-0.640625 2.6875,-0.46875 2.34375,-0.46875 2.1875,-0.46875 2,-0.515625 1.828125,-0.546875 1.515625,-0.625 1.453125,-0.625 1.328125,-0.625 c -0.015625,0 -0.109375,0 -0.15625,0.015625 z m 0,0"
               transform="translate(154.715,136.259)"
               id="path1732" />
          </g>
        </g>
      </g>
      <g
         transform="matrix(0.86572328,0,0,0.86572328,-21.496027,19.226101)"
         ns1:version="0.11.0"
         ns1:texconverter="pdflatex"
         ns1:pdfconverter="pdf2svg"
         ns1:text="$\\sigma_z$\n\n"
         ns1:preamble="default_packages.tex"
         ns1:scale="3.22589390495"
         ns1:alignment="middle center"
         inkscapeversion="0.92.4"
         ns1:jacobian_sqrt="1.138024"
         id="g1876">
        <g
           id="g1874">
          <g
             style="fill:#000000;fill-opacity:1"
             id="g1868">
            <path
               inkscape:connector-curvature="0"
               style="stroke:none;stroke-width:0"
               d="m 5.15625,-3.71875 c 0.140625,0 0.5,0 0.5,-0.34375 0,-0.234375 -0.21875,-0.234375 -0.390625,-0.234375 h -2.28125 c -1.5,0 -2.609375,1.640625 -2.609375,2.828125 0,0.875 0.59375,1.578125 1.5,1.578125 1.171875,0 2.5,-1.203125 2.5,-2.734375 0,-0.171875 0,-0.65625 -0.3125,-1.09375 z M 1.890625,-0.109375 C 1.390625,-0.109375 1,-0.46875 1,-1.1875 c 0,-0.296875 0.109375,-1.109375 0.46875,-1.703125 0.421875,-0.6875 1.015625,-0.828125 1.359375,-0.828125 0.828125,0 0.90625,0.65625 0.90625,0.96875 0,0.46875 -0.203125,1.28125 -0.53125,1.796875 -0.390625,0.578125 -0.9375,0.84375 -1.3125,0.84375 z m 0,0"
               transform="translate(148.712,134.765)"
               id="path1866" />
          </g>
          <g
             style="fill:#000000;fill-opacity:1"
             id="g1872">
            <path
               inkscape:connector-curvature="0"
               style="stroke:none;stroke-width:0"
               d="m 1.171875,-0.609375 c 0.1875,-0.1875 0.3125,-0.3125 0.890625,-0.796875 0.15625,-0.109375 0.671875,-0.53125 0.875,-0.71875 0.421875,-0.421875 0.6875,-0.78125 0.6875,-0.859375 0,-0.09375 -0.078125,-0.09375 -0.109375,-0.09375 -0.0625,0 -0.09375,0.015625 -0.125,0.078125 -0.21875,0.3125 -0.359375,0.421875 -0.53125,0.421875 -0.078125,0 -0.1875,0 -0.390625,-0.203125 -0.234375,-0.25 -0.390625,-0.296875 -0.546875,-0.296875 -0.5625,0 -0.9375,0.609375 -0.9375,0.8125 0,0.078125 0.0625,0.09375 0.109375,0.09375 0.09375,0 0.109375,-0.015625 0.125,-0.09375 0.109375,-0.25 0.5,-0.265625 0.609375,-0.265625 0.171875,0 0.34375,0.046875 0.4375,0.0625 0.390625,0.078125 0.4375,0.078125 0.609375,0.078125 -0.171875,0.203125 -0.296875,0.328125 -0.96875,0.84375 -0.546875,0.4375 -0.734375,0.609375 -0.859375,0.75 -0.421875,0.40625 -0.625,0.71875 -0.625,0.78125 0,0.078125 0.09375,0.078125 0.125,0.078125 0.0625,0 0.078125,0 0.109375,-0.0625 0.1875,-0.265625 0.40625,-0.421875 0.640625,-0.421875 0.09375,0 0.1875,0 0.375,0.171875 0.21875,0.21875 0.359375,0.3125 0.59375,0.3125 C 3,0.0625 3.46875,-0.78125 3.46875,-1.015625 3.46875,-1.09375 3.390625,-1.09375 3.359375,-1.09375 3.265625,-1.09375 3.25,-1.0625 3.21875,-0.984375 3.09375,-0.640625 2.6875,-0.46875 2.34375,-0.46875 2.1875,-0.46875 2,-0.515625 1.828125,-0.546875 1.515625,-0.625 1.453125,-0.625 1.328125,-0.625 c -0.015625,0 -0.109375,0 -0.15625,0.015625 z m 0,0"
               transform="translate(154.405,136.259)"
               id="path1870" />
          </g>
        </g>
      </g>
      <g
         transform="matrix(1.138024,0,0,1.138024,-39.865847,-30.484131)"
         ns1:version="0.11.0"
         ns1:texconverter="pdflatex"
         ns1:pdfconverter="pdf2svg"
         ns1:text="$z$\n"
         ns1:preamble="default_packages.tex"
         ns1:scale="3.22589390495"
         ns1:alignment="middle center"
         inkscapeversion="0.92.4"
         ns1:jacobian_sqrt="1.138024"
         id="g2016">
        <g
           id="g2014">
          <g
             style="fill:#000000;fill-opacity:1"
             id="g2012">
            <path
               inkscape:connector-curvature="0"
               style="stroke:none;stroke-width:0"
               d="m 1.328125,-0.828125 c 0.53125,-0.578125 0.828125,-0.828125 1.1875,-1.140625 0,0 0.609375,-0.53125 0.96875,-0.890625 C 4.4375,-3.78125 4.65625,-4.265625 4.65625,-4.3125 c 0,-0.09375 -0.09375,-0.09375 -0.109375,-0.09375 -0.078125,0 -0.09375,0.015625 -0.15625,0.109375 -0.296875,0.484375 -0.5,0.640625 -0.734375,0.640625 -0.25,0 -0.359375,-0.15625 -0.515625,-0.328125 -0.1875,-0.21875 -0.359375,-0.421875 -0.6875,-0.421875 -0.75,0 -1.203125,0.921875 -1.203125,1.140625 0,0.046875 0.03125,0.109375 0.109375,0.109375 0.09375,0 0.109375,-0.046875 0.140625,-0.109375 0.1875,-0.46875 0.765625,-0.46875 0.84375,-0.46875 0.203125,0 0.390625,0.0625 0.625,0.140625 0.40625,0.15625 0.515625,0.15625 0.765625,0.15625 -0.359375,0.421875 -1.1875,1.140625 -1.375,1.296875 l -0.90625,0.84375 C 0.78125,-0.625 0.421875,-0.0625 0.421875,0.015625 c 0,0.09375 0.109375,0.09375 0.125,0.09375 0.078125,0 0.09375,-0.015625 0.15625,-0.125 0.234375,-0.359375 0.53125,-0.625 0.859375,-0.625 0.21875,0 0.328125,0.09375 0.578125,0.375 0.15625,0.21875 0.34375,0.375 0.625,0.375 1,0 1.578125,-1.265625 1.578125,-1.53125 0,-0.046875 -0.046875,-0.109375 -0.125,-0.109375 -0.09375,0 -0.109375,0.0625 -0.140625,0.140625 C 3.84375,-0.75 3.203125,-0.5625 2.875,-0.5625 c -0.1875,0 -0.375,-0.0625 -0.578125,-0.125 -0.34375,-0.125 -0.5,-0.171875 -0.703125,-0.171875 -0.015625,0 -0.171875,0 -0.265625,0.03125 z m 0,0"
               transform="translate(148.712,134.765)"
               id="path2010" />
          </g>
        </g>
      </g>
      <path
         inkscape:connector-curvature="0"
         id="path2024"
         d="m 117.34714,119.92947 h 7.46773"
         style="fill:none;fill-rule:evenodd;stroke:#000000;stroke-width:1.46500003;stroke-linecap:butt;stroke-linejoin:miter;stroke-miterlimit:4;stroke-dasharray:none;stroke-opacity:1;marker-end:url(#Arrow2Send)" />
    </g>
  </g>
</svg>
